<svg width="17" height="10" viewBox="0 0 17 10" fill="none" xmlns="http://www.w3.org/2000/svg">
<path fill-rule="evenodd" clip-rule="evenodd" d="M14.4675 6.3741C15.0174 6.89154 15.5977 7.37838 16.0909 7.948C16.3088 8.20113 16.515 8.46234 16.6728 8.7561C16.8964 9.17369 16.6939 9.63323 16.3054 9.65817L13.8905 9.65712C13.2676 9.70693 12.7708 9.46525 12.353 9.05479C12.0186 8.72654 11.709 8.37719 11.3875 8.03787C11.2557 7.89918 11.1178 7.76868 10.953 7.66552C10.6233 7.45927 10.3371 7.52242 10.1488 7.85382C9.95688 8.19089 9.91337 8.56413 9.89452 8.93978C9.86865 9.48787 9.69677 9.63197 9.12556 9.65706C7.90482 9.71255 6.74628 9.53454 5.67004 8.94098C4.72118 8.41772 3.98538 7.67901 3.34495 6.84272C2.09802 5.21429 1.14312 3.4249 0.284888 1.58539C0.0917076 1.17094 0.232985 0.948472 0.707413 0.940598C1.49522 0.925847 2.28292 0.926897 3.07166 0.939548C3.39185 0.944062 3.60382 1.12107 3.72745 1.41263C4.15368 2.42278 4.67521 3.38385 5.32986 4.27469C5.5042 4.51186 5.68196 4.74903 5.93511 4.91596C6.21516 5.10079 6.42838 5.03953 6.56013 4.73884C6.64373 4.54818 6.68033 4.34282 6.69917 4.13862C6.76159 3.43609 6.76981 2.73476 6.66034 2.03469C6.59313 1.59778 6.33781 1.31494 5.88549 1.23226C5.65468 1.1901 5.68904 1.10732 5.8008 0.980336C5.99491 0.761329 6.17747 0.625 6.54139 0.625H9.27059C9.70025 0.706734 9.79567 0.892775 9.85449 1.30948L9.85683 4.23148C9.85215 4.3928 9.94043 4.8715 10.2419 4.97827C10.4832 5.05428 10.6422 4.86824 10.787 4.72079C11.4404 4.05232 11.9068 3.26233 12.3234 2.44431C12.5083 2.08461 12.6673 1.71106 12.8214 1.33782C12.9355 1.06086 13.1147 0.924587 13.4383 0.930623L16.065 0.932881C16.1429 0.932881 16.2217 0.933983 16.2972 0.946424C16.7398 1.01913 16.8611 1.20265 16.7244 1.61925C16.509 2.27286 16.0899 2.81754 15.6801 3.36475C15.242 3.94896 14.7735 4.51317 14.3391 5.10085C13.94 5.6375 13.9717 5.908 14.4675 6.3741Z" fill="currentColor"/>
</svg>
