<?xml version="1.0" standalone="no"?>
<!DOCTYPE svg PUBLIC "-//W3C//DTD SVG 20010904//EN"
 "http://www.w3.org/TR/2001/REC-SVG-20010904/DTD/svg10.dtd">
<svg version="1.0" xmlns="http://www.w3.org/2000/svg"
 width="700.000000pt" height="700.000000pt" viewBox="0 0 700.000000 700.000000"
 preserveAspectRatio="xMidYMid meet">
<metadata>
Created by potrace 1.11, written by Peter Selinger 2001-2013
</metadata>
<g transform="translate(0.000000,700.000000) scale(0.100000,-0.100000)"
fill="#000000" stroke="none">
<path d="M2374 6981 c-5 -5 -31 -21 -59 -36 -27 -15 -99 -55 -160 -90 -96 -54
-649 -367 -775 -437 -281 -158 -1130 -639 -1180 -669 -36 -22 -76 -48 -89 -58
l-24 -18 1 -1279 c0 -704 1 -1288 1 -1299 1 -15 17 -29 54 -48 28 -14 63 -33
77 -41 14 -8 81 -45 150 -82 165 -88 264 -141 325 -174 61 -33 124 -67 365
-195 102 -54 197 -107 212 -117 14 -10 31 -18 37 -18 6 0 29 -11 49 -24 21
-13 76 -44 123 -69 102 -54 210 -112 349 -187 58 -31 146 -79 195 -105 50 -27
163 -88 252 -135 89 -48 165 -84 170 -80 4 4 53 31 108 60 144 75 225 120 265
145 33 21 352 208 430 253 19 11 314 183 655 382 341 200 639 374 663 387 l42
25 1 389 c1 214 1 400 1 414 0 70 8 65 -107 65 -93 0 -105 -2 -106 -17 0 -10
-1 -177 -1 -371 0 -250 -4 -356 -12 -363 -6 -5 -85 -53 -176 -106 -91 -52
-257 -149 -370 -215 -113 -66 -236 -138 -275 -161 -38 -22 -90 -52 -115 -67
-25 -15 -88 -52 -140 -82 -52 -31 -184 -108 -293 -172 -109 -64 -201 -116
-206 -116 -4 0 -7 97 -7 216 l1 217 115 64 c63 36 144 81 180 100 36 20 160
89 275 153 116 64 239 133 275 152 36 20 89 50 118 67 29 17 54 31 56 31 2 0
63 34 136 75 73 41 135 75 139 75 3 0 16 8 29 18 23 17 22 18 -145 115 l-168
98 0 887 c0 488 4 893 8 900 5 8 2 15 -10 19 -10 4 -108 58 -217 120 -109 62
-201 113 -203 113 -3 0 -17 8 -31 19 -15 10 -52 32 -82 49 -30 16 -100 56
-155 87 -55 32 -116 66 -135 77 -19 11 -106 61 -194 111 l-159 90 -36 -19
c-19 -10 -78 -44 -131 -75 -52 -31 -252 -147 -445 -259 -192 -111 -386 -224
-430 -250 -44 -26 -96 -56 -115 -67 -58 -31 -269 -157 -267 -159 1 -1 146 -84
322 -184 176 -101 436 -250 579 -332 142 -81 263 -148 268 -148 5 0 55 26 111
59 56 32 125 71 152 86 59 34 90 51 574 324 205 116 376 209 380 207 6 -4 7
-464 0 -469 -8 -6 -266 -156 -314 -182 -28 -15 -57 -34 -66 -41 -8 -8 -18 -14
-21 -14 -3 0 -122 -68 -264 -152 -143 -83 -268 -156 -279 -162 -11 -7 -29 -17
-40 -25 -20 -12 -20 -23 -18 -661 l2 -648 -117 60 c-64 34 -158 82 -207 107
l-90 46 0 510 c1 281 -1 518 -3 528 -3 11 -14 17 -34 17 -25 0 -29 3 -23 18
18 43 16 47 -52 87 -37 22 -72 42 -77 44 -5 2 -85 48 -179 102 -93 55 -171 99
-172 99 -1 0 -54 30 -116 66 -63 37 -136 79 -164 94 -27 15 -211 121 -408 234
-197 113 -363 206 -368 206 -5 0 -9 5 -9 10 0 6 -4 10 -9 10 -5 0 -67 33 -138
74 l-128 74 -3 114 -3 114 43 22 c24 13 50 27 58 32 8 5 38 22 65 38 98 56
471 266 535 302 51 28 667 376 815 460 494 280 565 320 573 320 4 0 158 -91
752 -445 113 -67 311 -185 440 -262 129 -77 273 -163 320 -191 120 -71 341
-203 365 -216 11 -6 39 -24 62 -39 24 -15 47 -27 52 -27 5 0 11 -6 14 -12 2
-7 4 -180 4 -384 0 -204 3 -375 6 -381 4 -7 184 -11 207 -4 3 0 6 201 6 446
l2 445 -157 94 c-86 51 -460 272 -831 491 -371 218 -695 410 -720 425 -49 29
-232 138 -265 156 -11 6 -72 41 -135 79 -63 37 -118 69 -121 71 -3 2 -10 -1
-15 -5z m466 -1217 c232 -132 225 -128 415 -237 77 -44 141 -80 142 -81 3 -2
-39 -27 -337 -194 -63 -35 -164 -92 -225 -127 -60 -34 -187 -106 -281 -159
l-172 -97 -38 22 c-22 12 -100 56 -174 99 -74 43 -151 87 -170 98 -19 11 -64
36 -100 57 -36 20 -90 51 -120 68 -30 16 -74 42 -98 57 -48 30 -48 30 28 72
73 41 758 441 840 491 41 25 77 46 80 46 3 1 98 -51 210 -115z m-2487 -688
c23 -13 107 -62 187 -109 80 -46 197 -115 260 -151 63 -37 116 -69 118 -71 5
-4 10 -338 14 -825 l3 -346 40 -20 c52 -26 419 -216 510 -264 39 -20 151 -79
250 -130 99 -51 232 -120 295 -153 63 -32 212 -109 330 -170 118 -60 220 -114
227 -119 9 -7 12 -83 12 -291 l-1 -282 -81 -45 -82 -45 -150 80 c-82 45 -195
105 -250 135 -55 29 -147 79 -205 110 -58 31 -145 79 -195 105 -49 26 -142 76
-205 110 -63 34 -155 84 -205 110 -49 26 -110 59 -135 73 -25 14 -58 32 -75
40 -16 8 -77 41 -135 72 -139 76 -219 119 -310 167 -41 22 -119 64 -172 92
l-98 53 0 949 c0 522 3 949 6 949 3 0 24 -11 47 -24z m900 -525 c56 -32 123
-70 149 -85 26 -14 113 -64 193 -111 81 -47 151 -85 156 -85 5 0 9 -4 9 -10 0
-5 6 -10 13 -10 6 0 23 -9 36 -19 l24 -18 -89 -49 c-49 -27 -98 -54 -109 -61
-11 -7 -27 -16 -35 -20 -8 -4 -69 -38 -135 -76 -66 -38 -138 -79 -160 -91 -22
-13 -66 -38 -97 -55 -32 -18 -58 -29 -59 -24 -3 26 -12 722 -10 761 1 6 3 12
7 12 3 0 51 -26 107 -59z m2351 -365 c0 -218 -3 -399 -7 -402 -3 -3 -83 40
-177 95 -95 56 -174 101 -176 101 -2 0 -25 13 -51 29 -27 16 -103 61 -171 101
l-124 72 274 160 c150 88 307 179 348 203 40 24 76 42 80 40 3 -2 5 -181 4
-399z m-1623 -153 c3 -56 4 -722 1 -740 -4 -21 -4 -21 -55 6 -29 16 -137 72
-242 126 -180 93 -417 216 -423 220 -1 1 48 31 110 66 62 35 121 68 130 74 9
5 39 22 65 36 26 15 127 72 223 128 96 55 178 101 183 101 4 0 7 -8 8 -17z
m1224 -274 c378 -220 416 -242 487 -282 l38 -20 -28 -17 c-15 -9 -65 -37 -112
-62 -47 -25 -166 -90 -265 -145 -99 -55 -211 -117 -250 -138 -38 -20 -83 -45
-100 -55 -16 -9 -60 -34 -97 -54 l-68 -37 0 516 c0 283 3 515 8 515 4 0 178
-100 387 -221z"/>
</g>
</svg>
